<?xml version="1.0" standalone="no"?><!DOCTYPE svg PUBLIC "-//W3C//DTD SVG 1.1//EN" "http://www.w3.org/Graphics/SVG/1.1/DTD/svg11.dtd"><svg t="1583379087088" class="icon" viewBox="0 0 1024 1024" version="1.1" xmlns="http://www.w3.org/2000/svg" p-id="3619" xmlns:xlink="http://www.w3.org/1999/xlink" width="200" height="200"><defs><style type="text/css"></style></defs><path d="M788.727352 652.619606c-54.558295 0-103.420768 23.647261-137.403706 61.11809l-246.520296-126.268054c10.271679-23.071279 16.127496-48.542483 16.127496-75.421643 0-26.911159-5.855817-52.414362-16.127496-75.485641l246.488297-126.300053c33.982938 37.43883 82.87741 61.11809 137.435705 61.11809 102.524796 0 185.658198-83.133402 185.658198-185.658198C974.38555 83.133402 891.284147 0 788.727352 0c-102.556795 0-185.690197 83.133402-185.690197 185.690197 0 36.318865 10.591669 70.07781 28.607106 98.684916l-242.23243 124.092122c-33.342958-49.534452-89.91719-82.141433-154.107184-82.141433-102.556795 0-185.690197 83.101403-185.690197 185.690197 0 102.492797 83.133402 185.626199 185.690197 185.626199 64.189994 0 120.764226-32.606981 154.107184-82.077435l242.264429 124.060123c-18.015437 28.639105-28.607106 62.39805-28.607106 98.716915 0 102.524796 83.133402 185.658198 185.690197 185.658198 102.524796 0 185.658198-83.133402 185.658198-185.658198C974.38555 735.753008 891.284147 652.619606 788.727352 652.619606zM788.727352 31.999c84.701353 0 153.659198 68.925846 153.659198 153.691197 0 84.733352-68.925846 153.659198-153.659198 153.659198-84.733352 0-153.691197-68.925846-153.691197-153.659198C635.068154 100.924846 703.994 31.999 788.727352 31.999zM235.304647 665.643199c-84.733352 0-153.691197-68.893847-153.691197-153.627199 0-84.733352 68.925846-153.691197 153.691197-153.691197 84.701353 0 153.659198 68.925846 153.659198 153.691197C388.931846 596.717353 320.006 665.643199 235.304647 665.643199zM788.727352 991.969001c-84.733352 0-153.691197-68.925846-153.691197-153.659198 0-84.733352 68.925846-153.723196 153.691197-153.723196 84.701353 0 153.659198 68.957845 153.659198 153.723196C942.38655 923.043155 873.460704 991.969001 788.727352 991.969001z" p-id="3620" fill="#333333"></path></svg>